{"asset":{"version":"2.0","generator":"Blockbench 5.1.3 glTF exporter"},"scenes":[{"nodes":[6],"name":"blockbench_export"}],"scene":0,"nodes":[{"translation":[0,0.875,0],"name":"head"},{"rotation":[0,0,-1,6.123233995736766e-17],"translation":[-0.5,0.8125,0],"name":"arm_l"},{"rotation":[0,0,1,6.123233995736766e-17],"translation":[0.5,0.8125,0],"name":"arm_r"},{"translation":[0,0.8125,0],"name":"torso","children":[0,1,2]},{"rotation":[0,0,-1,6.123233995736766e-17],"translation":[-0.1875,0.75,0],"name":"leg_l"},{"rotation":[0,0,1,6.123233995736766e-17],"translation":[0.1875,0.75,0],"name":"leg_r"},{"name":"armature","mesh":0,"children":[3,4,5],"skin":0}],"bufferViews":[{"buffer":0,"byteOffset":0,"byteLength":1728,"target":34962,"byteStride":12},{"buffer":0,"byteOffset":1728,"byteLength":1728,"target":34962,"byteStride":12},{"buffer":0,"byteOffset":3456,"byteLength":1152,"target":34962,"byteStride":8},{"buffer":0,"byteOffset":4608,"byteLength":1152,"target":34962,"byteStride":8},{"buffer":0,"byteOffset":5760,"byteLength":2304,"target":34962,"byteStride":16},{"buffer":0,"byteOffset":8064,"byteLength":48,"target":34963},{"buffer":0,"byteOffset":8112,"byteLength":12,"target":34963},{"buffer":0,"byteOffset":8124,"byteLength":372,"target":34963},{"buffer":0,"byteOffset":8496,"byteLength":384},{"buffer":0,"byteOffset":8880,"byteLength":12},{"buffer":0,"byteOffset":8892,"byteLength":48},{"buffer":0,"byteOffset":8940,"byteLength":12},{"buffer":0,"byteOffset":8952,"byteLength":48},{"buffer":0,"byteOffset":9000,"byteLength":20},{"buffer":0,"byteOffset":9020,"byteLength":80}],"buffers":[{"byteLength":9100,"uri":"data:application/octet-stream;base64,"}],"accessors":[{"bufferView":0,"componentType":5126,"count":144,"max":[0.625,2.15625,0.21875],"min":[-0.625,0,-0.21875],"type":"VEC3"},{"bufferView":1,"componentType":5126,"count":144,"max":[1,1,1],"min":[-1,-1,-1],"type":"VEC3"},{"bufferView":2,"componentType":5126,"count":144,"max":[1,1],"min":[0,0],"type":"VEC2"},{"bufferView":3,"componentType":5123,"count":144,"max":[5,0,0,0],"min":[0,0,0,0],"type":"VEC4"},{"bufferView":4,"componentType":5126,"count":144,"max":[1,0,0,0],"min":[1,0,0,0],"type":"VEC4"},{"bufferView":5,"componentType":5123,"count":24,"max":[15],"min":[0],"type":"SCALAR"},{"bufferView":6,"componentType":5123,"count":6,"max":[19],"min":[16],"type":"SCALAR"},{"bufferView":7,"componentType":5123,"count":186,"max":[143],"min":[20],"type":"SCALAR"},{"bufferView":8,"componentType":5126,"count":6,"max":[1,1.2246468525851679e-16,0,0,1.2246468525851679e-16,1,0,0,0,0,1,0,0.5,1.625,0,1],"min":[-1,-1.2246468525851679e-16,0,0,-1.2246468525851679e-16,-1,0,0,0,0,1,0,-0.5,-1.6875,0,1],"type":"MAT4"},{"bufferView":9,"componentType":5126,"count":3,"max":[1],"min":[0],"type":"SCALAR"},{"bufferView":10,"componentType":5126,"count":3,"max":[1.8412919667060963e-17,0.30070579051971436,-0.9537169337272644,5.839832258897821e-17],"min":[-1.8412919667060963e-17,-0.30070579051971436,-0.9537169337272644,5.839832258897821e-17],"type":"VEC4"},{"bufferView":11,"componentType":5126,"count":3,"max":[1],"min":[0],"type":"SCALAR"},{"bufferView":12,"componentType":5126,"count":3,"max":[1.8412919667060963e-17,0.30070579051971436,0.9537169337272644,5.839832258897821e-17],"min":[-1.8412919667060963e-17,-0.30070579051971436,0.9537169337272644,5.839832258897821e-17],"type":"VEC4"},{"bufferView":13,"componentType":5126,"count":5,"max":[0.875],"min":[0],"type":"SCALAR"},{"bufferView":14,"componentType":5126,"count":5,"max":[0,0,1,6.123234262925839e-17],"min":[0,0,1.2246468525851679e-16,-1],"type":"VEC4"}],"materials":[{"pbrMetallicRoughness":{"metallicFactor":0,"roughnessFactor":1},"alphaMode":"MASK","alphaCutoff":0.05,"doubleSided":true},{"pbrMetallicRoughness":{"metallicFactor":0,"roughnessFactor":1,"baseColorTexture":{"index":0}},"alphaMode":"MASK","alphaCutoff":0.05,"doubleSided":true}],"textures":[{"sampler":0,"source":0,"name":"texture"}],"samplers":[{"magFilter":9728,"minFilter":9728,"wrapS":33071,"wrapT":33071}],"images":[{"mimeType":"image/png","uri":"data:image/png;base64,"}],"meshes":[{"primitives":[{"mode":4,"attributes":{"POSITION":0,"NORMAL":1,"TEXCOORD_0":2,"JOINTS_0":3,"WEIGHTS_0":4},"indices":5,"material":0},{"mode":4,"attributes":{"POSITION":0,"NORMAL":1,"TEXCOORD_0":2,"JOINTS_0":3,"WEIGHTS_0":4},"indices":6,"material":1},{"mode":4,"attributes":{"POSITION":0,"NORMAL":1,"TEXCOORD_0":2,"JOINTS_0":3,"WEIGHTS_0":4},"indices":7,"material":0}]}],"skins":[{"inverseBindMatrices":8,"joints":[3,0,1,2,4,5],"skeleton":3}],"animations":[{"name":"player_walk","samplers":[{"input":9,"output":10,"interpolation":"LINEAR"},{"input":11,"output":12,"interpolation":"LINEAR"}],"channels":[{"sampler":0,"target":{"node":4,"path":"rotation"}},{"sampler":1,"target":{"node":5,"path":"rotation"}}]},{"name":"wave","samplers":[{"input":13,"output":14,"interpolation":"LINEAR"}],"channels":[{"sampler":0,"target":{"node":2,"path":"rotation"}}]}]}